<?xml version="1.0" standalone="no"?><!DOCTYPE svg PUBLIC "-//W3C//DTD SVG 1.1//EN" "http://www.w3.org/Graphics/SVG/1.1/DTD/svg11.dtd"><svg t="1510582040067" class="icon" style="" viewBox="0 0 1024 1024" version="1.1" xmlns="http://www.w3.org/2000/svg" p-id="2029" xmlns:xlink="http://www.w3.org/1999/xlink" width="16" height="16"><defs><style type="text/css"></style></defs><path d="M511.716033 160.643724c-193.884802 0-351.089194 157.169599-351.089194 351.089194S317.832254 862.823134 511.716033 862.823134c193.883779 0 351.090217-157.171646 351.090217-351.090217S705.599811 160.643724 511.716033 160.643724zM690.018951 690.035836c-2.496867 2.496867-5.771447 3.746324-9.045003 3.746324s-6.547113-1.249457-9.045003-3.746324L511.716033 529.822924 351.504144 690.036859c-2.49789 2.496867-5.771447 3.746324-9.045003 3.746324s-6.547113-1.249457-9.045003-3.746324c-4.994758-4.995781-4.994758-13.094226 0-18.090007l160.211888-160.212912L333.414137 351.521029c-4.994758-4.994758-4.994758-13.094226 0-18.090007 4.995781-4.995781 13.094226-4.995781 18.090007 0l160.212912 160.211888 160.211888-160.211888c4.994758-4.995781 13.095249-4.995781 18.090007 0 4.995781 4.994758 4.995781 13.094226 0 18.090007L529.80604 511.732917 690.018951 671.945829C695.014732 676.94161 695.014732 685.040055 690.018951 690.035836z" p-id="2030" fill="#c9c9c9"></path></svg>