<?xml version="1.0" standalone="no"?><!DOCTYPE svg PUBLIC "-//W3C//DTD SVG 1.1//EN" "http://www.w3.org/Graphics/SVG/1.1/DTD/svg11.dtd"><svg t="1498714515460" class="icon" style="" viewBox="0 0 1024 1024" version="1.1" xmlns="http://www.w3.org/2000/svg" p-id="3340" xmlns:xlink="http://www.w3.org/1999/xlink" width="32" height="32"><defs><style type="text/css"></style></defs><path d="M532.951171 872.584452c-138.529053 0-264.724197-21.334911-298.009278-28.808116-28.659737-6.434549-36.761252-10.444886-40.906665-13.519921-8.087189-5.955642-13.043061-18.934235-16.038278-42.055838-2.594081-20.189831-1.575892-26.708292 2.710738-54.135968l0.521886-3.333932c3.372817-20.23588 11.856026-35.849486 25.213241-46.407959 12.20088-9.66615 26.749224-17.382902 43.230594-22.926152l4.3951-1.50733c35.774785-12.265348 84.933391-28.992311 98.752118-32.620955 15.119349-3.971451 28.329209-9.638521 39.258119-16.84362l0.325411-0.206708c8.818853-5.389754 15.748682-10.705829 20.59813-15.800871 4.426823-4.65195 7.417947-9.048073 8.889461-13.065574 1.669012-4.565992 2.481518-9.073656 2.481518-13.774725 0-5.119601-0.210801-11.17348-0.662079-19.040658-0.74906-8.526187-3.183506-14.651698-7.441483-18.726503-6.984065-6.678096-13.796214-12.706393-20.826328-18.423605l-0.222057-0.185218c-4.883217-4.185322-9.042957-9.874905-12.71458-17.395182-2.735297-5.597485-5.309936-11.571546-8.102538-18.798135l-0.179079-0.49835c-1.669012-5.009084-3.461845-10.524704-5.440919-16.749476-2.664689-1.232061-5.179976-2.741437-7.593955-4.553713l-0.319272-0.248663c-3.483334-2.816139-7.100722-6.67298-11.059893-11.789511-4.099365-5.293563-7.40362-12.248975-10.394744-21.88238l-0.036839-0.12075c-2.816139-9.441023-3.736091-18.205641-2.734274-26.052353 0.815575-7.427156 2.288113-13.706163 4.498454-19.178805 1.730411-4.944616 4.28356-9.755178 7.759731-14.607696-0.228197-17.772782 0.798179-35.035958 3.055592-51.372018 1.831718-15.292288 5.384637-32.011064 10.559497-49.692772 5.305843-18.119683 13.06455-34.611286 23.061228-49.019437 9.707083-13.739932 20.591991-25.157983 32.405037-34.018791 11.725042-8.791224 23.814382-15.797801 35.935444-20.827351 11.654434-4.833075 23.600511-8.302083 36.523845-10.608615l0.234337-0.038886c13.014408-2.040473 24.541953-3.031033 35.239596-3.031033 14.605649 0 28.753881 1.796926 42.048675 5.341658 13.536294 3.610224 25.590841 7.997138 36.852326 13.413498 12.403494 6.043646 22.432918 12.051477 30.710442 18.389836 9.035794 6.710842 16.634866 13.921058 22.585391 21.435195 12.514012 16.047488 22.030759 33.890878 28.337395 53.101405 6.279007 19.128663 10.4367 36.426631 12.71151 52.880371 2.614547 16.962324 3.882424 34.589796 3.778046 52.482305 2.607384 2.498914 4.783956 5.535063 6.440689 9.010211 2.477424 4.641717 4.329609 9.830903 5.508457 15.429411 1.394766 6.620791 1.534959 14.066367 0.428765 22.7614l-0.017396 0.127913c-1.454118 10.469446-4.027733 19.540032-7.649214 26.961048l-0.192382 0.376577c-3.876284 7.240915-8.012488 12.762675-12.643971 16.881482-3.585665 3.239787-7.350408 5.794983-11.369955 7.703449-1.49812 5.611811-3.227508 11.311627-5.166673 17.010419l-0.156566 0.432859c-2.303462 5.959735-5.13802 12.316513-8.42488 18.893302l-0.143263 0.277316c-3.875261 7.243985-8.012488 12.768815-12.647041 16.889669-4.432962 4.002151-8.754385 7.426133-13.149485 10.410094l-0.239454 0.158612c-3.294023 2.116197-5.959735 4.502547-8.139378 6.572696-1.994424 2.01489-3.464915 4.161786-4.622274 6.748704-1.547239 3.448542-2.707668 7.40669-3.455705 11.776208l-0.049119 0.265036c-1.154289 5.891174-1.553379 12.18553-1.184989 18.708084 0.329505 5.716188 1.934049 11.840676 4.635577 17.696034 2.725064 5.9055 7.249101 11.641131 13.44522 17.046235l0.079818 0.069585c6.178723 5.495154 15.289218 10.753925 27.078729 15.629979 11.259438 4.498454 23.691585 8.460696 36.954657 11.776208 9.989515 2.571568 35.195593 12.880355 64.669882 25.085328 8.423857 3.487428 15.700587 6.501064 19.230993 7.867178 13.905708 5.387707 26.384927 12.135388 37.095873 20.058848l0.572028 0.452301c11.749602 9.930163 19.793812 21.451568 24.592095 35.220153l0.050142 0.149403c2.653433 7.968485 4.589528 17.925255 5.756097 29.590945 0.187265 1.871627 0.332575 2.87549 0.415462 3.363607 1.294482 2.959402 1.294482 5.652743 1.294482 10.988262 0 11.263531-0.831948 22.409382-2.473331 33.131585l-0.022513 0.148379c-1.889023 11.332093-4.78191 20.018939-8.844435 26.558889l-0.3776 0.569982c-3.864004 5.452175-11.278881 9.720386-25.591865 14.730493C823.562968 835.659471 707.154725 872.584452 532.951171 872.584452zM207.485565 812.199153c1.030469 0.698918 6.740518 3.852748 32.388664 9.611915 1.258667 0.282433 133.052319 28.260647 293.076942 28.260647 83.974553 0 154.3596-9.094122 198.617593-16.72287 49.300846-8.497535 80.535221-17.531282 85.625146-19.311835 10.553357-3.693112 13.852496-5.938246 14.690584-6.619768 1.63729-2.88777 3.761674-8.185426 5.339612-17.618263 1.461281-9.575076 2.202155-19.550265 2.202155-29.65132 0-1.737574-0.01535-2.795673-0.032746-3.435239-0.722454-2.00568-1.14201-4.448312-1.564635-8.677637-0.997724-9.972119-2.575662-18.262946-4.689812-24.64326-3.402493-9.720386-9.149381-17.943674-17.565051-25.128307-9.032724-6.634094-19.640316-12.334933-31.538297-16.944927-3.77293-1.460258-10.80816-4.372587-19.715017-8.060583-19.60143-8.115841-52.408627-21.699208-61.593823-24.063045-14.192234-3.548826-27.619034-7.833409-39.833217-12.717649l-0.118704-0.049119c-14.328333-5.919826-25.27464-12.331863-33.461089-19.599384-8.584516-7.495718-14.992459-15.754822-19.049868-24.545022-3.927449-8.509814-6.17156-17.20587-6.670933-25.847691-0.471744-8.360412 0.048095-16.489556 1.541099-24.181749 1.069355-6.186909 2.778276-11.923564 5.079692-17.054421 2.294252-5.127787 5.350868-9.564843 9.337669-13.552667l0.198521-0.193405c2.769067-2.636037 6.569626-6.060019 11.472286-9.227152 3.538593-2.410909 6.930853-5.108345 10.664897-8.479115 2.65548-2.361791 5.170766-5.814426 7.746428-10.607592 2.90005-5.810333 5.3918-11.388375 7.407714-16.5837 2.321882-6.846942 4.387937-13.954827 5.981225-20.572548l1.52268-6.325056 6.240121-1.837858c3.160993-0.931209 6.107091-2.657526 9.008164-5.27719 2.645247-2.353604 5.151323-5.788843 7.719822-10.553357 2.52552-5.242398 4.370541-11.949146 5.483898-19.939121 0.774643-6.129604 0.730641-11.106965-0.134053-15.213493-0.7552-3.589758-1.909489-6.831592-3.431146-9.635451l-0.318248-0.633427c-0.76134-1.64343-1.700735-2.750647-2.870374-3.385097l-6.0416-3.275603 0.152473-6.871501c0.412392-18.590404-0.748037-36.897352-3.452635-54.410214l-0.025583-0.180102c-2.085498-15.126512-5.949502-31.163767-11.813047-49.028647-5.495154-16.736173-13.788028-32.284287-24.6494-46.212508-4.687766-5.918803-10.885931-11.768021-18.367323-17.316387l-0.145309-0.109494c-7.080256-5.429663-15.876596-10.679223-26.891464-16.046464-9.925047-4.773723-20.685111-8.68173-32.843012-11.924587-11.403724-3.040243-23.599488-4.581342-36.248575-4.581342-9.487072 0-19.836791 0.896416-31.637558 2.741437-11.256368 2.016937-21.638833 5.03262-31.735795 9.219989-10.384511 4.308119-20.833491 10.379395-31.054273 18.042935-9.933233 7.448646-19.175735 17.179264-27.470655 28.919656-8.559956 12.338003-15.271822 26.640754-19.896142 42.432415-4.838192 16.528442-8.143471 32.05302-9.82374 46.140876l-0.026606 0.211824c-2.270716 16.383132-3.210112 33.816177-2.792603 51.816133l0.095167 4.095271-2.559289 3.198855c-3.279696 4.098341-5.40408 7.752568-6.686283 11.497868l-0.239454 0.63752c-1.455141 3.53757-2.490727 8.072863-3.079128 13.480013l-0.028653 0.236384c-0.604774 4.64581 0.069585 10.44591 1.952468 16.777105 2.101871 6.755868 4.349051 11.7056 6.677073 14.712073 2.771113 3.581572 5.209652 6.248308 7.256264 7.936763 1.904373 1.402953 3.867074 2.371 6.160303 3.041266l5.771447 1.686409 1.807159 5.734608c2.576685 8.18031 4.832052 15.167444 6.889921 21.348214 2.518357 6.501064 4.820796 11.841699 7.238868 16.788361 2.269693 4.64888 4.574179 7.954159 7.04444 10.103102 7.454786 6.070252 14.669094 12.45466 22.051225 19.514449 8.303106 7.943926 13.120832 19.123546 14.32424 33.230845l0.021489 0.309038c0.490164 8.501628 0.708128 14.82259 0.708128 20.4958 0 7.383154-1.260713 14.419408-3.853771 21.51092-2.576685 7.034207-7.064906 13.851473-13.722536 20.847817-6.172583 6.485715-14.58416 13.009292-25.006534 19.392676-12.945847 8.504698-28.342512 15.136745-45.766346 19.713994-14.617929 3.838422-76.751035 25.14161-97.169063 32.142048l-4.463662 1.529843c-14.06739 4.731768-26.326599 11.206226-36.494169 19.261693-8.831132 6.979972-14.537088 17.878183-16.96744 32.396851l-0.494257 3.166109c-4.168949 26.678616-4.809539 30.780027-2.625804 47.780213C203.14777 807.109228 207.033263 811.727409 207.485565 812.199153z" p-id="3341"></path></svg>