<?xml version="1.0" standalone="no"?><!DOCTYPE svg PUBLIC "-//W3C//DTD SVG 1.1//EN" "http://www.w3.org/Graphics/SVG/1.1/DTD/svg11.dtd"><svg t="1498713802465" class="icon" style="" viewBox="0 0 1069 1024" version="1.1" xmlns="http://www.w3.org/2000/svg" p-id="917" xmlns:xlink="http://www.w3.org/1999/xlink" width="33.40625" height="32"><defs><style type="text/css"></style></defs><path d="M550.295 173.233c-195.218 0-353.495 158.277-353.495 353.495s158.277 353.495 353.495 353.495 353.495-158.277 353.495-353.495c-0.034-195.216-158.279-353.462-353.491-353.495zM550.295 834.123c-0.761 0.005-1.658 0.012-2.559 0.012-169.786 0-307.423-137.638-307.423-307.423 0-169.786 137.638-307.423 307.423-307.423 16.857 0 33.395 1.358 49.514 3.966l-1.767 233.072c-9.058-4.076-19.632-6.449-30.765-6.45h-29.771c0 0 0 0 0 0-42.447 0-76.855 34.41-76.855 76.855 0 42.447 34.41 76.855 76.855 76.855 0 0 0 0 0 0h30.724c0.025 0 0.057 0 0.089 0 42.381 0 76.737-34.356 76.737-76.737 0-0.041 0-0.083 0-0.124v-293.542c126.287 40.128 216.183 156.34 216.183 293.549 0 169.769-137.625 307.393-307.393 307.393-0.349 0-0.699 0-1.047-0.001zM494.209 274.511c-99.653 40.963-175.189 123.114-206.333 224.678l61.076-28.871c36.762-75.319 101.051-132.43 179.442-158.924l-34.185-36.882zM750.109 580.666c-36.739 75.315-100.987 132.434-179.34 158.972l34.259 36.688c99.398-41.091 174.697-123.201 205.702-224.646l-60.622 28.987z" fill="#333333" p-id="918"></path></svg>