<?xml version="1.0" standalone="no"?><!DOCTYPE svg PUBLIC "-//W3C//DTD SVG 1.1//EN" "http://www.w3.org/Graphics/SVG/1.1/DTD/svg11.dtd"><svg t="1498714470455" class="icon" style="" viewBox="0 0 1024 1024" version="1.1" xmlns="http://www.w3.org/2000/svg" p-id="2651" xmlns:xlink="http://www.w3.org/1999/xlink" width="32" height="32"><defs><style type="text/css"></style></defs><path d="M754.117316 332.37497 753.936191 332.407716 754.123456 332.407716Z" p-id="2652"></path><path d="M705.839777 637.85029c-27.79402-61.116963-79.70532-114.282836-108.462271-140.771117 44.673455-35.670407 73.351612-90.569762 73.351612-152.048975 0-107.252723-87.25732-194.509019-194.509019-194.509019S281.71108 237.778498 281.71108 345.030198c0 61.479213 28.678156 116.378567 73.351612 152.048975-28.757974 26.489304-80.668251 79.654154-108.463294 140.771117-6.204305 13.644765-21.336958 49.861618-27.814486 91.354638-6.551206 41.962717-2.084475 75.337849 13.277398 99.197256 11.310603 17.569144 34.487465 38.513152 80.665181 38.513152 11.30344 0 20.466124-9.162684 20.466124-20.466124s-9.162684-20.466124-20.466124-20.466124c-22.570042 0-37.697577-6.457062-46.248324-19.73753-19.811208-30.772864-6.252401-99.482759 17.380856-151.451364 27.496238-60.462047 84.084047-114.511034 107.137089-134.948505 25.750477 12.605086 54.673204 19.692504 85.222987 19.692504 30.549783 0 59.47251-7.088442 85.222987-19.692504 23.053042 20.438495 79.640852 74.486458 107.137089 134.948505 23.63428 51.968605 37.193087 120.6785 17.381879 151.450341-8.550747 13.281491-23.679305 19.738553-46.248324 19.738553-11.30344 0-20.466124 9.162684-20.466124 20.466124s9.162684 20.466124 20.466124 20.466124c46.177716 0 69.353554-20.944008 80.665181-38.513152 15.360849-23.859407 19.827581-57.235562 13.276375-99.197256C727.176734 687.711907 712.045105 651.495054 705.839777 637.85029zM476.219075 498.606968c-84.681658 0-153.576771-68.89409-153.576771-153.576771S391.537418 191.453427 476.219075 191.453427c84.682681 0 153.576771 68.89409 153.576771 153.576771S560.901757 498.606968 476.219075 498.606968z" p-id="2653"></path><path d="M805.836235 693.995007c-5.101181-32.674167-17.016559-61.192687-21.901823-71.936379-16.848737-37.048801-44.951795-70.387094-67.327408-93.287663-9.116635-9.330506-9.461489-24.232914-0.641613-33.843806 25.024953-27.27111 40.321334-63.605643 40.321334-103.44807 0-34.492582-13.405311-82.665745-52.892651-118.870318-9.083889-8.328689-23.433712 0.158612-20.410865 12.106736 2.060939 8.149611 2.27481 8.79327 3.413749 13.707187 0.845251 3.648087 3.567245 8.927323 6.090718 11.694343 19.59529 21.494547 31.56695 50.051953 31.56695 81.362053 0 40.782845-20.295232 76.910671-51.313689 98.823749-12.682857 8.960069-14.394848 27.073612-3.357468 37.996382 0.11768 0.116657 0.237407 0.234337 0.357134 0.353041 0.322341 0.319272 0.653893 0.62831 0.992607 0.930185 18.460444 16.423041 62.407352 58.641585 83.860966 105.818047 18.61087 40.922015 29.287023 95.027284 13.687744 119.258151-6.302543 9.788947 18.194384 31.28247 27.101241 17.448394C807.477618 753.319138 810.994722 727.038588 805.836235 693.995007z" p-id="2654"></path></svg>