<?xml version="1.0" standalone="no"?><!DOCTYPE svg PUBLIC "-//W3C//DTD SVG 1.1//EN" "http://www.w3.org/Graphics/SVG/1.1/DTD/svg11.dtd"><svg t="1499146071338" class="icon" style="" viewBox="0 0 1024 1024" version="1.1" xmlns="http://www.w3.org/2000/svg" p-id="3811" xmlns:xlink="http://www.w3.org/1999/xlink" width="16" height="16"><defs><style type="text/css"></style></defs><path d="M1017.6 166.4c0-25.6-19.2-44.8-44.8-44.8-25.6 0-44.8 19.2-44.8 44.8l0 0L928 1024l89.6 0L1017.6 166.4 1017.6 166.4 1017.6 166.4zM51.2 428.8C25.6 428.8 6.4 448 6.4 473.6l0 0L6.4 1024l89.6 0L96 473.6l0 0C96 448 76.8 428.8 51.2 428.8L51.2 428.8zM358.4 0C332.8 0 313.6 19.2 313.6 44.8l0 0L313.6 1024l89.6 0L403.2 44.8l0 0C403.2 19.2 384 0 358.4 0L358.4 0zM665.6 275.2C640 275.2 620.8 294.4 620.8 320l0 0 0 704 89.6 0L710.4 320l0 0C710.4 294.4 691.2 275.2 665.6 275.2L665.6 275.2zM665.6 275.2" p-id="3812" fill="#ffffff"></path></svg>