<?xml version="1.0" standalone="no"?><!DOCTYPE svg PUBLIC "-//W3C//DTD SVG 1.1//EN" "http://www.w3.org/Graphics/SVG/1.1/DTD/svg11.dtd"><svg t="1499062623507" class="icon" style="" viewBox="0 0 1600 1024" version="1.1" xmlns="http://www.w3.org/2000/svg" p-id="3286" xmlns:xlink="http://www.w3.org/1999/xlink" width="25" height="16"><defs><style type="text/css"></style></defs><path d="M1542.656 84.16c-33.664-21.376-78.08-21.376-121.728 0L1099.072 241.28V176.512c0-96.64-77.76-175.36-173.44-175.36H173.44C77.824 1.152 0 68.736 0 151.808V835.2c0 99.968 44.8 175.36 104.32 175.36h69.632v-70.144H104.32c-6.912 0-34.944-33.856-34.944-105.216V151.808c0-43.648 47.68-80.512 104.064-80.512h752.192c57.408 0 104.064 47.232 104.064 105.216V835.2c0 57.984-46.72 105.216-104.064 105.216H391.04v70.144h534.656c95.68 0 173.44-78.72 173.44-175.36v-64.512l321.92 158.592c22.016 10.816 44.16 16.192 65.024 16.192 20.608 0 40-5.248 56.704-15.808 33.6-21.312 52.864-61.696 52.864-110.784V195.008c0-49.152-19.328-89.536-52.928-110.848z m-16.448 734.72c0 24.384-7.424 43.072-20.288 51.2-12.992 8.192-32.832 6.784-54.528-3.904l-352.32-173.568V319.104l352-171.84c21.76-10.56 41.728-11.968 54.72-3.712 12.992 8.256 20.48 27.008 20.48 51.456v623.872z" fill="#ffffff" p-id="3287"></path><path d="M200.576 254.784c0 28.16 22.528 50.944 50.368 50.944a50.56 50.56 0 0 0 50.304-50.944 50.56 50.56 0 0 0-50.304-50.88 50.56 50.56 0 0 0-50.368 50.88" fill="#ffffff" p-id="3288"></path></svg>