<?xml version="1.0" standalone="no"?><!DOCTYPE svg PUBLIC "-//W3C//DTD SVG 1.1//EN" "http://www.w3.org/Graphics/SVG/1.1/DTD/svg11.dtd"><svg t="1498714135825" class="icon" style="" viewBox="0 0 1024 1024" version="1.1" xmlns="http://www.w3.org/2000/svg" p-id="1438" xmlns:xlink="http://www.w3.org/1999/xlink" width="32" height="32"><defs><style type="text/css"></style></defs><path d="M797.729032 282.803406 567.373034 149.637766c-30.567118-17.670416-80.164624-17.678603-110.746069 0l-230.355998 133.165639c-30.567118 17.670416-55.373034 60.574489-55.373034 95.810945l0 266.770276c0 35.120822 24.79159 78.132342 55.373034 95.810945l230.355998 133.165639c30.567118 17.670416 80.164624 17.678603 110.746069 0l230.355998-133.165639c30.567118-17.670416 55.373034-60.574489 55.373034-95.810945L853.102067 378.615374C853.102067 343.493528 828.310477 300.482008 797.729032 282.803406zM831.782548 645.384626c0 27.611816-20.736235 63.487836-44.723508 77.354631l-230.355998 133.165639c-23.974993 13.859631-65.435184 13.857585-89.406084 0l-230.355998-133.165639c-23.959643-13.850422-44.723508-49.808306-44.723508-77.354631L192.217452 378.615374c0-27.611816 20.736235-63.487836 44.723508-77.354631l230.355998-133.165639c23.974993-13.859631 65.435184-13.857585 89.406084 0l230.355998 133.165639c23.95862 13.850422 44.723508 49.80933 44.723508 77.354631L831.782548 645.384626z" p-id="1439"></path><path d="M543.339713 519.041356c4.271272-5.851253 3.266387-14.271-2.242059-18.806284-6.857161-5.645569-14.462358-10.077499-22.548507-13.197554 14.3764-15.045641 23.296542-35.954815 23.296542-59.084559 0-45.816397-34.970396-82.958244-78.109829-82.958244-43.13841 0-78.109829 37.141848-78.109829 82.958244 0 27.030579 12.178343 51.034225 31.018395 66.180149-53.136091 20.453803-91.103745 74.528265-91.103745 138.025311 0 7.048519 5.380533 12.762649 12.016661 12.762649 6.636127 0 12.016661-5.71413 12.016661-12.762649 0-66.962977 51.110973-121.247216 114.159811-121.247216 7.569381 0 14.878842-1.165543 21.800472-3.299133 1.417276 0.584307 2.952232 0.917904 4.562913 0.917904 13.061454 0 25.433201 4.578263 35.533213 12.893632C531.140904 525.957869 539.069465 524.892609 543.339713 519.041356zM463.73586 485.384882c-29.865132 0-54.075485-25.713587-54.075485-57.432946s24.210353-57.432946 54.075485-57.432946c29.865132 0 54.076508 25.713587 54.076508 57.432946S493.600991 485.384882 463.73586 485.384882z" p-id="1440"></path><path d="M683.445401 425.546149l-64.527513 34.923324c-5.046936 0.553608-8.941632 4.077867-8.941632 8.353232l0 95.366831c-11.324907-10.940145-26.489251-17.64381-43.216181-17.64381-35.225199 0-63.574817 29.717776-63.574817 66.230291 0 36.512515 28.349618 66.230291 63.574817 66.230291 35.237479 0 63.574817-29.711636 63.574817-66.230291 0-2.397602-0.128936-4.764504-0.367366-7.096614 0.417508-0.916881 0.656961-1.904369 0.656961-2.939953L630.624487 478.746708l62.196426-33.66159c5.079682-2.749618 7.099684-9.351977 4.510725-14.747859S688.525083 422.797554 683.445401 425.546149zM566.759052 659.717024c-24.363849 0-44.286557-20.884614-44.286557-46.942031 0-26.057417 19.922709-46.941008 44.286557-46.941008 21.071879 0 38.79653 15.606412 43.216181 36.674198l0 0.230243c0 0.920974 0.187265 1.806132 0.520862 2.636031 0.358156 2.409881 0.549514 4.880138 0.549514 7.400536C611.046632 638.840596 591.13518 659.717024 566.759052 659.717024z" p-id="1441"></path></svg>