<?xml version="1.0" standalone="no"?><!DOCTYPE svg PUBLIC "-//W3C//DTD SVG 1.1//EN" "http://www.w3.org/Graphics/SVG/1.1/DTD/svg11.dtd"><svg t="1498811532146" class="icon" style="" viewBox="0 0 1024 1024" version="1.1" xmlns="http://www.w3.org/2000/svg" p-id="3212" xmlns:xlink="http://www.w3.org/1999/xlink" width="64" height="64"><defs><style type="text/css"></style></defs><path d="M420.16 241.984m-61.44 0a0.96 0.96 0 1 0 122.88 0 0.96 0.96 0 1 0-122.88 0Z" p-id="3213" fill="#f44336"></path><path d="M260.8 530.176m-35.328 0a0.552 0.552 0 1 0 70.656 0 0.552 0.552 0 1 0-70.656 0Z" p-id="3214" fill="#f44336"></path><path d="M891.2 273.856c5.632-8.128 11.136-16.32 16.64-24.64 7.296-11.264 43.2-69.12 32.96-100.8-2.944-9.024-9.088-15.616-18.048-19.072l-0.96-0.32-1.728-0.32c-0.512-0.064-2.496-0.32-6.08-0.32-11.712 0-36.928 2.688-74.048 20.8L833.92 152.128l11.264 23.04L851.2 172.224c34.752-16.896 56.832-18.24 63.744-18.176 0.576 0.448 1.088 1.088 1.408 2.304 4.8 14.976-14.656 55.168-30.016 78.848-189.76 288.128-485.248 486.272-488.384 488.384l-0.64 0.448c-67.2 53.12-120.704 86.976-160 108.416C147.008 754.944 89.664 640.064 89.664 512c0-232.896 189.44-422.336 422.336-422.336 102.144 0 200.768 37.12 277.76 104.448l5.44 4.736 4.352-5.696c2.56-3.328 4.992-7.168 7.168-11.456l2.432-4.736-4.032-3.456C723.776 102.912 619.648 64 512 64 264.96 64 64 264.96 64 512c0 98.304 31.872 189.312 85.76 263.296l-0.96 1.28c-9.472 12.352-55.936 75.456-41.152 105.856 2.88 5.952 10.688 16 30.08 16.192l0.384 0 0.896-0.064c0.96-0.064 23.936-2.368 69.632-22.976 7.552-3.392 16.064-7.488 25.536-12.352C310.592 923.776 407.104 960 512 960c247.04 0 448-200.96 448-448C960 427.328 936.192 345.28 891.2 273.856zM934.336 512c0 232.896-189.44 422.336-422.336 422.336-94.848 0-182.528-31.424-253.12-84.48 39.424-22.208 90.88-55.552 153.856-105.28 13.952-9.344 273.536-185.472 462.336-447.872C913.856 361.792 934.336 435.84 934.336 512zM212.8 845.184c-4.864 2.368-9.408 4.544-13.632 6.464-37.632 17.088-58.24 20.736-61.952 21.248-3.968-0.128-6.144-0.96-6.528-1.728-4.288-8.832 12.288-43.648 35.328-74.816C180.416 813.76 196.032 830.08 212.8 845.184z" p-id="3215" fill="#f44336"></path></svg>