<?xml version="1.0" standalone="no"?><!DOCTYPE svg PUBLIC "-//W3C//DTD SVG 1.1//EN" "http://www.w3.org/Graphics/SVG/1.1/DTD/svg11.dtd"><svg t="1498811158466" class="icon" style="" viewBox="0 0 1024 1024" version="1.1" xmlns="http://www.w3.org/2000/svg" p-id="1141" xmlns:xlink="http://www.w3.org/1999/xlink" width="64" height="64"><defs><style type="text/css"></style></defs><path d="M512 469.333333c12.8 0 21.333333-8.533333 21.333333-21.333333 0-12.8-8.533333-21.333333-21.333333-21.333333-12.8 0-21.333333 8.533333-21.333333 21.333333C490.666667 460.8 499.2 469.333333 512 469.333333zM597.333333 426.666667c-12.8 0-21.333333 8.533333-21.333333 21.333333 0 12.8 8.533333 21.333333 21.333333 21.333333 12.8 0 21.333333-8.533333 21.333333-21.333333C618.666667 435.2 610.133333 426.666667 597.333333 426.666667zM896 298.666667 896 166.4c25.6-8.533333 42.666667-32 42.666667-59.733333 0-36.266667-27.733333-64-64-64s-64 27.733333-64 64c0 27.733333 17.066667 51.2 42.666667 59.733333L853.333333 298.666667l-85.333333 0 0-42.666667c0-23.466667-19.2-42.666667-42.666667-42.666667L298.666667 213.333333c-23.466667 0-42.666667 19.2-42.666667 42.666667l0 42.666667L128 298.666667c-46.933333 0-85.333333 38.4-85.333333 85.333333l0 512c0 46.933333 38.4 85.333333 85.333333 85.333333l768 0c46.933333 0 85.333333-38.4 85.333333-85.333333L981.333333 384C981.333333 337.066667 942.933333 298.666667 896 298.666667zM298.666667 256l426.666667 0 0 42.666667L298.666667 298.666667 298.666667 256zM896 938.666667 128 938.666667c-23.466667 0-42.666667-19.2-42.666667-42.666667l853.333333 0C938.666667 919.466667 919.466667 938.666667 896 938.666667zM938.666667 426.666667l-64 0c-12.8 0-21.333333 8.533333-21.333333 21.333333 0 12.8 8.533333 21.333333 21.333333 21.333333l64 0 0 106.666667-87.466667 0c-10.666667-59.733333-61.866667-106.666667-125.866667-106.666667-70.4 0-128 57.6-128 128 0 70.4 57.6 128 128 128 64 0 115.2-46.933333 125.866667-106.666667L938.666667 618.666667l0 234.666667L85.333333 853.333333 85.333333 618.666667l87.466667 0c10.666667 59.733333 61.866667 106.666667 125.866667 106.666667 70.4 0 128-57.6 128-128 0-70.4-57.6-128-128-128-64 0-115.2 46.933333-125.866667 106.666667L85.333333 576l0-106.666667 64 0c12.8 0 21.333333-8.533333 21.333333-21.333333 0-12.8-8.533333-21.333333-21.333333-21.333333L85.333333 426.666667l0-42.666667c0-23.466667 19.2-42.666667 42.666667-42.666667l170.666667 0 426.666667 0 170.666667 0c23.466667 0 42.666667 19.2 42.666667 42.666667L938.666667 426.666667zM810.666667 597.333333c0 46.933333-38.4 85.333333-85.333333 85.333333s-85.333333-38.4-85.333333-85.333333 38.4-85.333333 85.333333-85.333333S810.666667 550.4 810.666667 597.333333zM213.333333 597.333333c0-46.933333 38.4-85.333333 85.333333-85.333333s85.333333 38.4 85.333333 85.333333-38.4 85.333333-85.333333 85.333333S213.333333 644.266667 213.333333 597.333333zM384 810.666667l85.333333 0 0-42.666667-85.333333 0L384 810.666667zM554.666667 554.666667l-85.333333 0 0 85.333333 85.333333 0L554.666667 554.666667zM448 448c0-12.8-8.533333-21.333333-21.333333-21.333333-12.8 0-21.333333 8.533333-21.333333 21.333333 0 12.8 8.533333 21.333333 21.333333 21.333333C439.466667 469.333333 448 460.8 448 448zM554.666667 810.666667l85.333333 0 0-42.666667-85.333333 0L554.666667 810.666667z" p-id="1142" fill="#f44336"></path></svg>