<?xml version="1.0" standalone="no"?><!DOCTYPE svg PUBLIC "-//W3C//DTD SVG 1.1//EN" "http://www.w3.org/Graphics/SVG/1.1/DTD/svg11.dtd"><svg t="1498811546356" class="icon" style="" viewBox="0 0 1195 1024" version="1.1" xmlns="http://www.w3.org/2000/svg" p-id="3951" xmlns:xlink="http://www.w3.org/1999/xlink" width="74.6875" height="64"><defs><style type="text/css"></style></defs><path d="M532.675765 861.525124h136.224506a88.17298 88.17298 0 0 0 88.17298-88.17298l3.297653-685.179164A88.17298 88.17298 0 0 0 672.197925 0h-136.224506a88.17298 88.17298 0 0 0-88.172979 88.17298l-3.297654 685.179164a88.120636 88.120636 0 0 0 88.172979 88.17298zM967.573481 861.525124h136.224505a88.17298 88.17298 0 0 0 88.17298-88.17298l3.297653-358.999335a88.17298 88.17298 0 0 0-88.172979-88.17298h-136.224506a88.17298 88.17298 0 0 0-88.172979 88.17298l-3.297654 358.999335a88.146808 88.146808 0 0 0 88.17298 88.17298zM127.221387 832.709912c26.983183 29.260134 51.532383 28.815212 51.532383 28.815212 37.216378 0 58.886674-28.815212 58.886674-28.815212l103.064765-105.734295c62.158156-79.326893-9.003118-147.635434-9.003118-147.635434-79.326893-67.889792-149.022543-4.501559-149.022543-4.501559-88.513214-66.240965-153.576445 9.003118-153.576445 9.003118-65.429638 76.47416 0 149.258089 0 149.258089l98.118284 99.610081z m-50.302305-214.923274s29.862087-27.820682 68.28237 0l37.216378 37.635128 37.216377-37.216378s33.944896-28.21326 69.512447 0c0 0 37.635128 31.903491 5.312887 73.621428l-106.728825 109.188979s-5.07734 6.542964-12.483975-2.276951l-108.560854-110.60226c0.026172 0-25.753105-35.567551 10.233195-70.349946zM1168.233093 969.928948H27.035526a27.009354 27.009354 0 1 0 0 54.071052h1141.197567a27.035526 27.035526 0 0 0 0-54.071052z" p-id="3952" fill="#f44336"></path></svg>