<?xml version="1.0" standalone="no"?><!DOCTYPE svg PUBLIC "-//W3C//DTD SVG 1.1//EN" "http://www.w3.org/Graphics/SVG/1.1/DTD/svg11.dtd"><svg t="1498816500248" class="icon" style="" viewBox="0 0 1024 1024" version="1.1" xmlns="http://www.w3.org/2000/svg" p-id="4686" xmlns:xlink="http://www.w3.org/1999/xlink" width="16" height="16"><defs><style type="text/css"></style></defs><path d="M324.652078 827.882344l331.522556-331.522556L324.649008 164.834162l0 0c-7.992021-7.992021-7.992021-20.951171 0-28.943193 7.992021-7.992021 20.951171-7.992021 28.943193 0l0.00307 0.00307L699.364295 481.663064c0 0 0.00307 0.00307 0.004093 0.004093 4.052293 4.052293 6.040576 9.381671 5.984295 14.69263 0.057305 5.310959-1.930979 10.640338-5.984295 14.69263l0 0 0 0L353.593224 856.82963l0 0c-7.992021 7.992021-20.951171 7.992021-28.943193 0-7.992021-7.992021-7.992021-20.951171 0-28.943193L324.652078 827.882344z" p-id="4687" fill="#333333"></path></svg>