<?xml version="1.0" standalone="no"?><!DOCTYPE svg PUBLIC "-//W3C//DTD SVG 1.1//EN" "http://www.w3.org/Graphics/SVG/1.1/DTD/svg11.dtd"><svg t="1499145449585" class="icon" style="" viewBox="0 0 1024 1024" version="1.1" xmlns="http://www.w3.org/2000/svg" p-id="2886" xmlns:xlink="http://www.w3.org/1999/xlink" width="16" height="16"><defs><style type="text/css"></style></defs><path d="M935.765333 905.6l-265.301333-265.301333c53.12-60.16 85.376-139.221333 85.376-225.792 0-188.501333-152.832-341.333333-341.333333-341.333333s-341.333333 152.832-341.333333 341.333333 152.832 341.333333 341.333333 341.333333c86.570667 0 165.632-32.213333 225.792-85.376l265.301333 265.301333 15.104 15.104 30.165333-30.165333L935.765333 905.6zM414.464 713.130667c-164.949333 0-298.666667-133.717333-298.666667-298.666667s133.717333-298.666667 298.666667-298.666667c164.949333 0 298.666667 133.717333 298.666667 298.666667S579.413333 713.130667 414.464 713.130667z" p-id="2887" fill="#dbdbdb"></path></svg>