<?xml version="1.0" standalone="no"?><!DOCTYPE svg PUBLIC "-//W3C//DTD SVG 1.1//EN" "http://www.w3.org/Graphics/SVG/1.1/DTD/svg11.dtd"><svg t="1499052635854" class="icon" style="" viewBox="0 0 1024 1024" version="1.1" xmlns="http://www.w3.org/2000/svg" p-id="2339" xmlns:xlink="http://www.w3.org/1999/xlink" width="16" height="16"><defs><style type="text/css"></style></defs><path d="M953.792 629.888c19.626667-52.117333 29.888-106.858667 29.888-163.008C983.658667 209.429333 772.138667 0 512.149333 0 252.138667 0 40.618667 209.429333 40.618667 466.88c0 56.128 10.218667 110.826667 29.824 162.858667-21.226667 33.002667-33.685333 72.064-33.685333 114.090667l0 46.016c0 117.546667 96.234667 212.842667 214.954667 212.842667l75.072 0L326.784 530.965333l-75.072 0c-58.346667 0-111.189333 23.104-149.909333 60.458667-12.437333-40.170667-19.008-81.877333-19.008-124.544 0-234.389333 192.597333-425.088 429.333333-425.088 236.757333 0 429.333333 190.698667 429.333333 425.088 0 42.688-6.570667 84.416-19.050667 124.650667-38.741333-37.418667-91.626667-60.565333-150.037333-60.565333l-75.072 0L697.301333 1002.666667l75.072 0c118.72 0 214.954667-95.296 214.954667-212.842667l0-46.016C987.370667 701.866667 974.954667 662.848 953.792 629.888zM251.712 572.736l32.874667 0 0 388.138667-32.874667 0c-95.274667 0-172.778667-76.736-172.778667-171.072l0-46.016C78.954667 649.472 156.437333 572.736 251.712 572.736zM945.194667 789.824c0 94.336-77.504 171.072-172.778667 171.072l-32.874667 0L739.541333 572.736l32.874667 0c95.274667 0 172.778667 76.736 172.778667 171.072L945.194667 789.824z" p-id="2340" fill="#ffffff"></path></svg>